# xmcd CD database file
#
# Track frame offsets:
#	150
#	2291
#	68743
#	134595
#	201315
#	273402
#	275543
#	294148
#
# Disc length: 4230 seconds
#
# Revision: 0
# Processed by: cddbd v1.5.2PL0 Copyright (c) Steve Scherf et al.
# Submitted via: CDex 1.51
#
DISCID=72108408
DTITLE=Osho meditations - Kundalini meditation
DYEAR=1900
DGENRE=New Age
TTITLE0=01,boing
TTITLE1=02,phase 1-shaking standing
TTITLE2=03,phase2-dancing folow the body
TTITLE3=04,phase3-sitting observing
TTITLE4=05,phase4-lying observing
TTITLE5=06,boing
TTITLE6=07,Ad Visser - Movement
TTITLE7=08,Wim Mertens - Multiple 12
EXTD=
EXTT0=
EXTT1=
EXTT2=
EXTT3=
EXTT4=
EXTT5=
EXTT6=
EXTT7=
PLAYORDER=
